<svg id="Capa_1" enable-background="new 0 0 512 512" height="512" viewBox="0 0 512 512" width="512" xmlns="http://www.w3.org/2000/svg"><g><path d="m30.874 109.096 80.126 29.137v76.767c0 12.612 8.443 30.245 48.665 42.621 25.944 7.982 60.156 12.379 96.335 12.379s70.392-4.396 96.335-12.379c40.222-12.376 48.665-30.009 48.665-42.621v-76.767l60-21.818v108.585c0 8.284 6.716 15 15 15s15-6.716 15-15v-130c0-6.308-3.946-11.941-9.874-14.097l-220-80c-3.311-1.204-6.941-1.204-10.252 0l-220 80c-5.928 2.155-9.874 7.789-9.874 14.097s3.946 11.941 9.874 14.096zm340.126 105.47c-1.205 2.308-9.188 9.442-32.483 15.833-22.566 6.191-51.871 9.601-82.517 9.601s-59.951-3.41-82.517-9.601c-23.295-6.391-31.278-13.525-32.483-15.833v-65.423l109.874 39.954c3.311 1.204 6.941 1.204 10.252 0l109.874-39.955zm-115-183.605 134.858 49.039h-134.858c-8.284 0-15 6.716-15 15s6.716 15 15 15h134.857l-134.857 49.039-176.107-64.039z"/><path d="m501.076 333.927c-8.361-13.935-20.781-21.927-34.076-21.927h-422c-13.294 0-25.714 7.992-34.076 21.927-7.044 11.741-10.924 27.038-10.924 43.073s3.88 31.332 10.924 43.073c8.362 13.935 20.782 21.927 34.076 21.927h166v55c0 4.822 2.318 9.35 6.229 12.168 3.912 2.82 8.94 3.587 13.514 2.062l25.257-8.419 25.256 8.419c4.546 1.519 9.595.767 13.514-2.062 3.912-2.819 6.23-7.346 6.23-12.168v-55h166c13.294 0 25.714-7.992 34.076-21.927 7.044-11.742 10.924-27.039 10.924-43.073s-3.88-31.332-10.924-43.073zm-275.076 58.073c0-16.542 13.458-30 30-30s30 13.458 30 30-13.458 30-30 30-30-13.458-30-30zm63.117-50h139.709c-4.429 10.309-6.825 22.423-6.825 35s2.396 24.691 6.825 35h-116.266c2.22-6.26 3.44-12.989 3.44-20 0-20.85-10.696-39.243-26.883-50zm-259.117 35c0-21.712 9.712-35 15-35h177.884c-16.188 10.757-26.884 29.15-26.884 50 0 7.011 1.22 13.74 3.44 20h-154.44c-5.288 0-15-13.288-15-35zm230.744 95.769c-3.079-1.026-6.408-1.026-9.487 0l-10.257 3.419v-26.087c4.796 1.239 9.822 1.899 15 1.899s10.204-.66 15-1.899v26.087zm206.256-60.769c-5.288 0-15-13.288-15-35s9.712-35 15-35 15 13.288 15 35-9.712 35-15 35z"/></g></svg>